<?xml version="1.0" encoding="UTF-8" standalone="no"?>
<!DOCTYPE svg PUBLIC "-//W3C//DTD SVG 1.1//EN" "http://www.w3.org/Graphics/SVG/1.1/DTD/svg11.dtd">
<svg width="100%" height="100%" viewBox="0 0 3508 2481" version="1.1" xmlns="http://www.w3.org/2000/svg" xmlns:xlink="http://www.w3.org/1999/xlink" xml:space="preserve" xmlns:serif="http://www.serif.com/" style="fill-rule:evenodd;clip-rule:evenodd;stroke-linejoin:round;stroke-miterlimit:2;">
    <g transform="matrix(0.450709,0,0,0.654363,1396.81873,1427.702626)">
        <path d="M360,-400L440,-400L440,-600L360,-600L360,-400ZM200,-460C169.333,-475.333 145,-497.5 127,-526.5C109,-555.5 100,-587 100,-621C100,-671 117.167,-713.333 151.5,-748C185.833,-782.667 228,-800 278,-800C286,-800 294.167,-799.333 302.5,-798C310.833,-796.667 319,-795 327,-793C343.667,-820.333 365.333,-841.667 392,-857C418.667,-872.333 448,-880 480,-880C512,-880 541.333,-872.333 568,-857C594.667,-841.667 616.333,-820.333 633,-793C641,-795 649,-796.667 657,-798C665,-799.333 673.333,-800 682,-800C732,-800 774.167,-782.667 808.5,-748C842.833,-713.333 860,-671 860,-621C860,-587 851,-555.5 833,-526.5C815,-497.5 790.667,-475.333 760,-460L760,-240L200,-240L200,-460ZM520,-400L600,-400L600,-600L520,-600L520,-400ZM280,-320L680,-320L680,-509L724,-531C741.333,-539.667 755,-551.833 765,-567.5C775,-583.167 780,-600.667 780,-620C780,-648 770.5,-671.667 751.5,-691C732.5,-710.333 709.333,-720 682,-720C674.667,-720 668,-719.333 662,-718C656,-716.667 649.667,-715 643,-713L596,-700L565,-752C555.667,-767.333 543.5,-779.167 528.5,-787.5C513.5,-795.833 497.333,-800 480,-800C462.667,-800 446.5,-795.833 431.5,-787.5C416.5,-779.167 404.333,-767.333 395,-752L364,-700L316,-713C309.333,-714.333 302.833,-715.833 296.5,-717.5C290.167,-719.167 283.667,-720 277,-720C249.667,-720 226.667,-710.333 208,-691C189.333,-671.667 180,-648 180,-620C180,-600.667 185,-583.167 195,-567.5C205,-551.833 218.667,-539.667 236,-531L280,-509L280,-320ZM200,-240L280,-240L280,-160L680,-160L680,-240L760,-240L760,-80L200,-80L200,-240Z" style="fill:white;fill-rule:nonzero;"/>
    </g>
    <g transform="matrix(0.450709,0,0,0.654363,1009.20898,1427.702626)">
        <path d="M360,-400L440,-400L440,-600L360,-600L360,-400ZM200,-460C169.333,-475.333 145,-497.5 127,-526.5C109,-555.5 100,-587 100,-621C100,-671 117.167,-713.333 151.5,-748C185.833,-782.667 228,-800 278,-800C286,-800 294.167,-799.333 302.5,-798C310.833,-796.667 319,-795 327,-793C343.667,-820.333 365.333,-841.667 392,-857C418.667,-872.333 448,-880 480,-880C512,-880 541.333,-872.333 568,-857C594.667,-841.667 616.333,-820.333 633,-793C641,-795 649,-796.667 657,-798C665,-799.333 673.333,-800 682,-800C732,-800 774.167,-782.667 808.5,-748C842.833,-713.333 860,-671 860,-621C860,-587 851,-555.5 833,-526.5C815,-497.5 790.667,-475.333 760,-460L760,-240L200,-240L200,-460ZM520,-400L600,-400L600,-600L520,-600L520,-400ZM280,-320L680,-320L680,-509L724,-531C741.333,-539.667 755,-551.833 765,-567.5C775,-583.167 780,-600.667 780,-620C780,-648 770.5,-671.667 751.5,-691C732.5,-710.333 709.333,-720 682,-720C674.667,-720 668,-719.333 662,-718C656,-716.667 649.667,-715 643,-713L596,-700L565,-752C555.667,-767.333 543.5,-779.167 528.5,-787.5C513.5,-795.833 497.333,-800 480,-800C462.667,-800 446.5,-795.833 431.5,-787.5C416.5,-779.167 404.333,-767.333 395,-752L364,-700L316,-713C309.333,-714.333 302.833,-715.833 296.5,-717.5C290.167,-719.167 283.667,-720 277,-720C249.667,-720 226.667,-710.333 208,-691C189.333,-671.667 180,-648 180,-620C180,-600.667 185,-583.167 195,-567.5C205,-551.833 218.667,-539.667 236,-531L280,-509L280,-320ZM200,-240L280,-240L280,-160L680,-160L680,-240L760,-240L760,-80L200,-80L200,-240Z" style="fill:white;fill-rule:nonzero;"/>
    </g>
    <g transform="matrix(0.450709,0,0,0.654363,1784.42848,1427.702626)">
        <path d="M360,-400L440,-400L440,-600L360,-600L360,-400ZM200,-460C169.333,-475.333 145,-497.5 127,-526.5C109,-555.5 100,-587 100,-621C100,-671 117.167,-713.333 151.5,-748C185.833,-782.667 228,-800 278,-800C286,-800 294.167,-799.333 302.5,-798C310.833,-796.667 319,-795 327,-793C343.667,-820.333 365.333,-841.667 392,-857C418.667,-872.333 448,-880 480,-880C512,-880 541.333,-872.333 568,-857C594.667,-841.667 616.333,-820.333 633,-793C641,-795 649,-796.667 657,-798C665,-799.333 673.333,-800 682,-800C732,-800 774.167,-782.667 808.5,-748C842.833,-713.333 860,-671 860,-621C860,-587 851,-555.5 833,-526.5C815,-497.5 790.667,-475.333 760,-460L760,-240L200,-240L200,-460ZM520,-400L600,-400L600,-600L520,-600L520,-400ZM280,-320L680,-320L680,-509L724,-531C741.333,-539.667 755,-551.833 765,-567.5C775,-583.167 780,-600.667 780,-620C780,-648 770.5,-671.667 751.5,-691C732.5,-710.333 709.333,-720 682,-720C674.667,-720 668,-719.333 662,-718C656,-716.667 649.667,-715 643,-713C643,-713 609,-693.5 596,-700C583,-706.5 565,-752 565,-752C555.667,-767.333 543.5,-779.167 528.5,-787.5C513.5,-795.833 497.333,-800 480,-800C462.667,-800 446.5,-795.833 431.5,-787.5C416.5,-779.167 404.333,-767.333 395,-752L364,-700L316,-713C309.333,-714.333 302.833,-715.833 296.5,-717.5C290.167,-719.167 283.667,-720 277,-720C249.667,-720 226.667,-710.333 208,-691C189.333,-671.667 180,-648 180,-620C180,-600.667 185,-583.167 195,-567.5C205,-551.833 218.667,-539.667 236,-531L280,-509L280,-320ZM200,-240L280,-240L280,-160L680,-160L680,-240L760,-240L760,-80L200,-80L200,-240Z" style="fill:white;fill-rule:nonzero;"/>
    </g>
</svg>
